<svg xmlns="http://www.w3.org/2000/svg" width="640" height="420" viewBox="0 0 640 420">
<rect width="640" height="420" rx="28" fill="#fff1dc"/>
<rect x="28" y="28" width="584" height="364" rx="22" fill="#fffaf0" stroke="#1d1b18" stroke-width="6"/>
<text x="320" y="68" text-anchor="middle" font-size="28" font-family="Arial" font-weight="900" fill="#d73935">PARTE ATTRICE</text>
<circle cx="180" cy="195" r="78" fill="#f5c9a0" stroke="#1d1b18" stroke-width="6"/>
<path d="M108 182c4-52 153-62 146 4" fill="#5c3a21"/>
<circle cx="155" cy="202" r="8" fill="#1d1b18"/><circle cx="205" cy="202" r="8" fill="#1d1b18"/>
<path d="M156 243c18 14 36 14 56 0" fill="none" stroke="#1d1b18" stroke-width="6"/>
<path d="M108 275c24-18 48-24 73-24 25 0 52 8 77 26v70H108z" fill="#d73535" stroke="#1d1b18" stroke-width="6"/>
<rect x="320" y="118" width="236" height="212" rx="18" fill="#f5f9ff" stroke="#1d1b18" stroke-width="5"/>
<text x="340" y="154" font-size="20" font-family="Arial" font-weight="700" fill="#1d1b18">Nome:</text>
<text x="422" y="154" font-size="24" font-family="Arial" font-weight="900" fill="#1d1b18">GIULIA R.</text>
<text x="340" y="194" font-size="20" font-family="Arial" font-weight="700" fill="#1d1b18">Caso:</text>
<text x="422" y="194" font-size="20" font-family="Arial" fill="#1d1b18">Deposito locazione</text>
<text x="340" y="234" font-size="20" font-family="Arial" font-weight="700" fill="#1d1b18">Cauzione:</text>
<text x="422" y="234" font-size="20" font-family="Arial" fill="#1d1b18">€1.200</text>
<text x="340" y="274" font-size="20" font-family="Arial" font-weight="700" fill="#1d1b18">Richiesta:</text>
<text x="340" y="304" font-size="16" font-family="Arial" fill="#1d1b18">Restituzione quasi totale della</text>
<text x="340" y="328" font-size="16" font-family="Arial" fill="#1d1b18">cauzione, salvo danni provati.</text>
</svg>