<svg xmlns="http://www.w3.org/2000/svg" width="600" height="600" viewBox="0 0 600 600">
<rect width="600" height="600" rx="40" fill="#6fc3ff"/>
<circle cx="300" cy="220" r="112" fill="#ffd8b0" stroke="#1f1a17" stroke-width="12"/>
<path d="M190 220c0-18 20-34 40-34s36 14 36 32" fill="none" stroke="#1f1a17" stroke-width="10" stroke-linecap="round"/>
<path d="M336 218c0-18 19-34 39-34 21 0 37 14 37 32" fill="none" stroke="#1f1a17" stroke-width="10" stroke-linecap="round"/>
<circle cx="245" cy="230" r="11" fill="#1f1a17"/>
<circle cx="355" cy="230" r="11" fill="#1f1a17"/>
<path d="M245 280c24 22 89 22 113 0" fill="none" stroke="#1f1a17" stroke-width="10" stroke-linecap="round"/>
<path d="M214 282c-8 44 27 82 86 82 58 0 95-37 87-82" fill="#fff4da" stroke="#1f1a17" stroke-width="10"/>
<path d="M194 344c40 34 169 34 212 0v129H194z" fill="#111828" stroke="#1f1a17" stroke-width="12"/>
<path d="M240 368h120l18 60H222z" fill="#fff4da" stroke="#1f1a17" stroke-width="10"/>
<path d="M145 420c32-30 75-47 140-47 65 0 106 14 170 47v88H145z" fill="#d73535" stroke="#1f1a17" stroke-width="12"/>
<rect x="175" y="75" width="250" height="55" rx="16" fill="#111828" stroke="#1f1a17" stroke-width="12"/>
<rect x="221" y="38" width="158" height="48" rx="14" fill="#111828" stroke="#1f1a17" stroke-width="12"/>
<g transform="translate(446 245) rotate(18)">
<rect x="-11" y="-84" width="22" height="130" rx="8" fill="#9b6032" stroke="#1f1a17" stroke-width="8"/>
<rect x="-36" y="-112" width="72" height="42" rx="10" fill="#c6853f" stroke="#1f1a17" stroke-width="8"/>
<rect x="-44" y="38" width="88" height="16" rx="8" fill="#d4b182" stroke="#1f1a17" stroke-width="6"/>
</g>
<text x="300" y="545" font-family="Arial, Helvetica, sans-serif" font-weight="900" font-size="58" text-anchor="middle" fill="#fff4da">GIUDICE POP</text>
</svg>